<?xml version="1.0" encoding="utf-8"?>
<!-- Generator: Adobe Illustrator 16.0.0, SVG Export Plug-In . SVG Version: 6.00 Build 0)  -->
<!DOCTYPE svg PUBLIC "-//W3C//DTD SVG 1.0//EN" "http://www.w3.org/TR/2001/REC-SVG-20010904/DTD/svg10.dtd">
<svg version="1.0" id="Layer_1" xmlns="http://www.w3.org/2000/svg" xmlns:xlink="http://www.w3.org/1999/xlink" x="0px" y="0px"
	 width="30px" height="30px" viewBox="0 0 30 30" enable-background="new 0 0 30 30" xml:space="preserve">
<path d="M25,11.8c0-0.1-0.1-0.2-0.1-0.4c0,0,0-0.1-0.1-0.1c0,0,0-0.1-0.1-0.1c0,0-0.1-0.1-0.1-0.1l-9.1-6.1c-0.3-0.2-0.7-0.2-1,0
	l-9.1,6.1C5.2,11.4,5,11.7,5,12V18c0,0.1,0,0.2,0.1,0.3c0,0,0,0.1,0,0.1c0.1,0.1,0.2,0.2,0.3,0.3l9.1,6.1c0.3,0.2,0.6,0.2,1,0
	l9.1-6.1c0.1-0.1,0.2-0.1,0.2-0.3c0,0,0,0,0,0c0.1-0.1,0.1-0.2,0.1-0.3c0,0,0-0.1,0-0.1V12C25,11.9,25,11.9,25,11.8
	C25,11.8,25,11.9,25,11.8z M15.9,7.5l6.7,4.5l-3,2l-3.7-2.5V7.5z M14.1,7.5v4L10.4,14l-3-2L14.1,7.5z M6.7,13.6L8.9,15l-2.2,1.4
	V13.6z M14.1,22.5L7.4,18l3-2l3.7,2.5V22.5z M15,17l-3-2l3-2l3,2L15,17z M15.9,22.5v-4l3.7-2.5l3,2L15.9,22.5z M23.3,16.4L21.1,15
	l2.2-1.4V16.4z"/>
</svg>
