<?xml version="1.0" encoding="utf-8"?>
<!-- Generator: Adobe Illustrator 16.0.0, SVG Export Plug-In . SVG Version: 6.00 Build 0)  -->
<!DOCTYPE svg PUBLIC "-//W3C//DTD SVG 1.0//EN" "http://www.w3.org/TR/2001/REC-SVG-20010904/DTD/svg10.dtd">
<svg version="1.0" id="Layer_1" xmlns="http://www.w3.org/2000/svg" xmlns:xlink="http://www.w3.org/1999/xlink" x="0px" y="0px"
	 width="30px" height="30px" viewBox="0 0 30 30" enable-background="new 0 0 30 30" xml:space="preserve">
<path d="M22.9,7.1H7.1c-1.4,0-2.5,1.1-2.5,2.4v11c0,1.3,1.1,2.4,2.5,2.4h15.8c1.4,0,2.5-1.1,2.5-2.4v-11C25.3,8.2,24.2,7.1,22.9,7.1
	z M22.9,20.8H7.1c-0.2,0-0.4-0.1-0.4-0.3V11l7.1,6c0.1,0.1,0.3,0.2,0.5,0.2h1.2c0.2,0,0.4-0.1,0.5-0.2l7.1-6v9.5
	C23.3,20.6,23.1,20.8,22.9,20.8z M15,15.1L8.1,9.2h13.9L15,15.1z"/>
</svg>
