<?xml version="1.0" encoding="utf-8"?>
<!-- Generator: Adobe Illustrator 16.0.0, SVG Export Plug-In . SVG Version: 6.00 Build 0)  -->
<!DOCTYPE svg PUBLIC "-//W3C//DTD SVG 1.0//EN" "http://www.w3.org/TR/2001/REC-SVG-20010904/DTD/svg10.dtd">
<svg version="1.0" id="Layer_1" xmlns="http://www.w3.org/2000/svg" xmlns:xlink="http://www.w3.org/1999/xlink" x="0px" y="0px"
	 width="30px" height="30px" viewBox="0 0 30 30" enable-background="new 0 0 30 30" xml:space="preserve">
<path fill-rule="evenodd" clip-rule="evenodd" d="M10.3,30c0.6,0,0.8-0.4,0.8-0.8c0-0.4,0-1.3,0-2.6c-4.3,0.9-5.2-2.1-5.2-2.1
	c-0.7-1.8-1.7-2.3-1.7-2.3c-1.4-1,0.1-0.9,0.1-0.9c1.6,0.1,2.4,1.6,2.4,1.6c1.4,2.4,3.6,1.7,4.5,1.3c0.1-1,0.5-1.7,1-2.1
	c-3.4-0.4-7.1-1.7-7.1-7.7c0-1.7,0.6-3.1,1.6-4.2C6.5,9.9,6,8.3,6.8,6.2c0,0,1.3-0.4,4.3,1.6c1.2-0.3,2.6-0.5,3.9-0.5
	c1.3,0,2.6,0.2,3.9,0.5c3-2,4.3-1.6,4.3-1.6c0.8,2.1,0.3,3.7,0.2,4.1c1,1.1,1.6,2.5,1.6,4.2c0,6-3.6,7.3-7.1,7.7
	c0.6,0.5,1.1,1.4,1.1,2.9c0,2.1,0,3.7,0,4.3c0,0.4,0.2,0.8,0.8,0.8L10.3,30z"/>
</svg>
