<?xml version="1.0" encoding="utf-8"?>
<!-- Generator: Adobe Illustrator 16.0.0, SVG Export Plug-In . SVG Version: 6.00 Build 0)  -->
<!DOCTYPE svg PUBLIC "-//W3C//DTD SVG 1.0//EN" "http://www.w3.org/TR/2001/REC-SVG-20010904/DTD/svg10.dtd">
<svg version="1.0" id="Layer_1" xmlns="http://www.w3.org/2000/svg" xmlns:xlink="http://www.w3.org/1999/xlink" x="0px" y="0px"
	 width="30px" height="30px" viewBox="0 0 30 30" enable-background="new 0 0 30 30" xml:space="preserve">
<path d="M12.2,23.2c-3.4-0.4-7.1-1.7-7.1-7.7c0-1.7,0.6-3.1,1.6-4.2C6.5,11,6,9.4,6.8,7.3c0,0,1.3-0.4,4.3,1.6
	c1.2-0.3,2.6-0.5,3.9-0.5s2.6,0.2,3.9,0.5c3-2,4.3-1.6,4.3-1.6c0.8,2.1,0.3,3.7,0.2,4.1c1,1.1,1.6,2.5,1.6,4.2c0,6-3.6,7.3-7.1,7.7
	C14.2,23.5,12.2,23.2,12.2,23.2z"/>
</svg>
