<?xml version="1.0" encoding="utf-8"?>
<!-- Generator: Adobe Illustrator 16.0.0, SVG Export Plug-In . SVG Version: 6.00 Build 0)  -->
<!DOCTYPE svg PUBLIC "-//W3C//DTD SVG 1.0//EN" "http://www.w3.org/TR/2001/REC-SVG-20010904/DTD/svg10.dtd">
<svg version="1.0" id="Layer_1" xmlns="http://www.w3.org/2000/svg" xmlns:xlink="http://www.w3.org/1999/xlink" x="0px" y="0px"
	 width="30px" height="30px" viewBox="0 0 30 30" enable-background="new 0 0 30 30" xml:space="preserve">
<g>
	<g>
		<path d="M10.6,22.8H7.3V12.2h3.3V22.8z M9,10.7C7.9,10.7,7,9.9,7,8.8C7,7.8,7.9,6.9,9,6.9c1.1,0,1.9,0.9,1.9,1.9
			C10.9,9.9,10,10.7,9,10.7z M23,22.8h-3.3v-5.2c0-1.2,0-2.8-1.7-2.8c-1.7,0-2,1.3-2,2.7v5.2h-3.3V12.2h3.2v1.4h0
			c0.4-0.8,1.5-1.7,3.1-1.7c3.3,0,4,2.2,4,5.1V22.8z"/>
	</g>
</g>
</svg>
